<?xml version="1.0" encoding="utf-8" standalone="no"?>
<!DOCTYPE svg PUBLIC "-//W3C//DTD SVG 1.1//EN"
  "http://www.w3.org/Graphics/SVG/1.1/DTD/svg11.dtd">
<svg xmlns:xlink="http://www.w3.org/1999/xlink" width="460.8pt" height="345.6pt" viewBox="0 0 460.8 345.6" xmlns="http://www.w3.org/2000/svg" version="1.1">
 <metadata>
  <rdf:RDF xmlns:dc="http://purl.org/dc/elements/1.1/" xmlns:cc="http://creativecommons.org/ns#" xmlns:rdf="http://www.w3.org/1999/02/22-rdf-syntax-ns#">
   <cc:Work>
    <dc:type rdf:resource="http://purl.org/dc/dcmitype/StillImage"/>
    <dc:date>2025-11-05T20:29:45.836515</dc:date>
    <dc:format>image/svg+xml</dc:format>
    <dc:creator>
     <cc:Agent>
      <dc:title>Matplotlib v3.7.1, https://matplotlib.org/</dc:title>
     </cc:Agent>
    </dc:creator>
   </cc:Work>
  </rdf:RDF>
 </metadata>
 <defs>
  <style type="text/css">*{stroke-linejoin: round; stroke-linecap: butt}</style>
 </defs>
 <g id="figure_1">
  <g id="patch_1">
   <path d="M 0 345.6 
L 460.8 345.6 
L 460.8 0 
L 0 0 
z
" style="fill: #ffffff"/>
  </g>
  <g id="axes_1">
   <g id="patch_2">
    <path d="M 57.6 307.584 
L 414.72 307.584 
L 414.72 41.472 
L 57.6 41.472 
z
" style="fill: #ffffff"/>
   </g>
   <g id="matplotlib.axis_1">
    <g id="xtick_1">
     <g id="line2d_1">
      <defs>
       <path id="md2df81191e" d="M 0 0 
L 0 3.5 
" style="stroke: #000000; stroke-width: 0.8"/>
      </defs>
      <g>
       <use xlink:href="#md2df81191e" x="73.832727" y="307.584" style="stroke: #000000; stroke-width: 0.8"/>
      </g>
     </g>
     <g id="text_1">
      <!-- one -->
      <g transform="translate(68.490001 327.292102) rotate(-30) scale(0.08 -0.08)">
       <defs>
        <path id="DejaVuSans-6f" d="M 1959 3097 
Q 1497 3097 1228 2736 
Q 959 2375 959 1747 
Q 959 1119 1226 758 
Q 1494 397 1959 397 
Q 2419 397 2687 759 
Q 2956 1122 2956 1747 
Q 2956 2369 2687 2733 
Q 2419 3097 1959 3097 
z
M 1959 3584 
Q 2709 3584 3137 3096 
Q 3566 2609 3566 1747 
Q 3566 888 3137 398 
Q 2709 -91 1959 -91 
Q 1206 -91 779 398 
Q 353 888 353 1747 
Q 353 2609 779 3096 
Q 1206 3584 1959 3584 
z
" transform="scale(0.015625)"/>
        <path id="DejaVuSans-6e" d="M 3513 2113 
L 3513 0 
L 2938 0 
L 2938 2094 
Q 2938 2591 2744 2837 
Q 2550 3084 2163 3084 
Q 1697 3084 1428 2787 
Q 1159 2491 1159 1978 
L 1159 0 
L 581 0 
L 581 3500 
L 1159 3500 
L 1159 2956 
Q 1366 3272 1645 3428 
Q 1925 3584 2291 3584 
Q 2894 3584 3203 3211 
Q 3513 2838 3513 2113 
z
" transform="scale(0.015625)"/>
        <path id="DejaVuSans-65" d="M 3597 1894 
L 3597 1613 
L 953 1613 
Q 991 1019 1311 708 
Q 1631 397 2203 397 
Q 2534 397 2845 478 
Q 3156 559 3463 722 
L 3463 178 
Q 3153 47 2828 -22 
Q 2503 -91 2169 -91 
Q 1331 -91 842 396 
Q 353 884 353 1716 
Q 353 2575 817 3079 
Q 1281 3584 2069 3584 
Q 2775 3584 3186 3129 
Q 3597 2675 3597 1894 
z
M 3022 2063 
Q 3016 2534 2758 2815 
Q 2500 3097 2075 3097 
Q 1594 3097 1305 2825 
Q 1016 2553 972 2059 
L 3022 2063 
z
" transform="scale(0.015625)"/>
       </defs>
       <use xlink:href="#DejaVuSans-6f"/>
       <use xlink:href="#DejaVuSans-6e" x="61.181641"/>
       <use xlink:href="#DejaVuSans-65" x="124.560547"/>
      </g>
     </g>
    </g>
    <g id="xtick_2">
     <g id="line2d_2">
      <g>
       <use xlink:href="#md2df81191e" x="155.077609" y="307.584" style="stroke: #000000; stroke-width: 0.8"/>
      </g>
     </g>
     <g id="text_2">
      <!-- two -->
      <g transform="translate(149.87074 327.135227) rotate(-30) scale(0.08 -0.08)">
       <defs>
        <path id="DejaVuSans-74" d="M 1172 4494 
L 1172 3500 
L 2356 3500 
L 2356 3053 
L 1172 3053 
L 1172 1153 
Q 1172 725 1289 603 
Q 1406 481 1766 481 
L 2356 481 
L 2356 0 
L 1766 0 
Q 1100 0 847 248 
Q 594 497 594 1153 
L 594 3053 
L 172 3053 
L 172 3500 
L 594 3500 
L 594 4494 
L 1172 4494 
z
" transform="scale(0.015625)"/>
        <path id="DejaVuSans-77" d="M 269 3500 
L 844 3500 
L 1563 769 
L 2278 3500 
L 2956 3500 
L 3675 769 
L 4391 3500 
L 4966 3500 
L 4050 0 
L 3372 0 
L 2619 2869 
L 1863 0 
L 1184 0 
L 269 3500 
z
" transform="scale(0.015625)"/>
       </defs>
       <use xlink:href="#DejaVuSans-74"/>
       <use xlink:href="#DejaVuSans-77" x="39.208984"/>
       <use xlink:href="#DejaVuSans-6f" x="120.996094"/>
      </g>
     </g>
    </g>
    <g id="xtick_3">
     <g id="line2d_3">
      <g>
       <use xlink:href="#md2df81191e" x="236.32249" y="307.584" style="stroke: #000000; stroke-width: 0.8"/>
      </g>
     </g>
     <g id="text_3">
      <!-- three -->
      <g transform="translate(228.263691 330.428352) rotate(-30) scale(0.08 -0.08)">
       <defs>
        <path id="DejaVuSans-68" d="M 3513 2113 
L 3513 0 
L 2938 0 
L 2938 2094 
Q 2938 2591 2744 2837 
Q 2550 3084 2163 3084 
Q 1697 3084 1428 2787 
Q 1159 2491 1159 1978 
L 1159 0 
L 581 0 
L 581 4863 
L 1159 4863 
L 1159 2956 
Q 1366 3272 1645 3428 
Q 1925 3584 2291 3584 
Q 2894 3584 3203 3211 
Q 3513 2838 3513 2113 
z
" transform="scale(0.015625)"/>
        <path id="DejaVuSans-72" d="M 2631 2963 
Q 2534 3019 2420 3045 
Q 2306 3072 2169 3072 
Q 1681 3072 1420 2755 
Q 1159 2438 1159 1844 
L 1159 0 
L 581 0 
L 581 3500 
L 1159 3500 
L 1159 2956 
Q 1341 3275 1631 3429 
Q 1922 3584 2338 3584 
Q 2397 3584 2469 3576 
Q 2541 3569 2628 3553 
L 2631 2963 
z
" transform="scale(0.015625)"/>
       </defs>
       <use xlink:href="#DejaVuSans-74"/>
       <use xlink:href="#DejaVuSans-68" x="39.208984"/>
       <use xlink:href="#DejaVuSans-72" x="102.587891"/>
       <use xlink:href="#DejaVuSans-65" x="141.451172"/>
       <use xlink:href="#DejaVuSans-65" x="202.974609"/>
      </g>
     </g>
    </g>
    <g id="xtick_4">
     <g id="line2d_4">
      <g>
       <use xlink:href="#md2df81191e" x="317.567371" y="307.584" style="stroke: #000000; stroke-width: 0.8"/>
      </g>
     </g>
     <g id="text_4">
      <!-- four -->
      <g transform="translate(311.712607 327.883352) rotate(-30) scale(0.08 -0.08)">
       <defs>
        <path id="DejaVuSans-66" d="M 2375 4863 
L 2375 4384 
L 1825 4384 
Q 1516 4384 1395 4259 
Q 1275 4134 1275 3809 
L 1275 3500 
L 2222 3500 
L 2222 3053 
L 1275 3053 
L 1275 0 
L 697 0 
L 697 3053 
L 147 3053 
L 147 3500 
L 697 3500 
L 697 3744 
Q 697 4328 969 4595 
Q 1241 4863 1831 4863 
L 2375 4863 
z
" transform="scale(0.015625)"/>
        <path id="DejaVuSans-75" d="M 544 1381 
L 544 3500 
L 1119 3500 
L 1119 1403 
Q 1119 906 1312 657 
Q 1506 409 1894 409 
Q 2359 409 2629 706 
Q 2900 1003 2900 1516 
L 2900 3500 
L 3475 3500 
L 3475 0 
L 2900 0 
L 2900 538 
Q 2691 219 2414 64 
Q 2138 -91 1772 -91 
Q 1169 -91 856 284 
Q 544 659 544 1381 
z
M 1991 3584 
L 1991 3584 
z
" transform="scale(0.015625)"/>
       </defs>
       <use xlink:href="#DejaVuSans-66"/>
       <use xlink:href="#DejaVuSans-6f" x="35.205078"/>
       <use xlink:href="#DejaVuSans-75" x="96.386719"/>
       <use xlink:href="#DejaVuSans-72" x="159.765625"/>
      </g>
     </g>
    </g>
    <g id="xtick_5">
     <g id="line2d_5">
      <g>
       <use xlink:href="#md2df81191e" x="398.812252" y="307.584" style="stroke: #000000; stroke-width: 0.8"/>
      </g>
     </g>
     <g id="text_5">
      <!-- five -->
      <g transform="translate(393.552339 327.196477) rotate(-30) scale(0.08 -0.08)">
       <defs>
        <path id="DejaVuSans-69" d="M 603 3500 
L 1178 3500 
L 1178 0 
L 603 0 
L 603 3500 
z
M 603 4863 
L 1178 4863 
L 1178 4134 
L 603 4134 
L 603 4863 
z
" transform="scale(0.015625)"/>
        <path id="DejaVuSans-76" d="M 191 3500 
L 800 3500 
L 1894 563 
L 2988 3500 
L 3597 3500 
L 2284 0 
L 1503 0 
L 191 3500 
z
" transform="scale(0.015625)"/>
       </defs>
       <use xlink:href="#DejaVuSans-66"/>
       <use xlink:href="#DejaVuSans-69" x="35.205078"/>
       <use xlink:href="#DejaVuSans-76" x="62.988281"/>
       <use xlink:href="#DejaVuSans-65" x="122.167969"/>
      </g>
     </g>
    </g>
    <g id="text_6">
     <!-- Stages -->
     <g transform="translate(219.106094 343.467639) scale(0.1 -0.1)">
      <defs>
       <path id="DejaVuSans-53" d="M 3425 4513 
L 3425 3897 
Q 3066 4069 2747 4153 
Q 2428 4238 2131 4238 
Q 1616 4238 1336 4038 
Q 1056 3838 1056 3469 
Q 1056 3159 1242 3001 
Q 1428 2844 1947 2747 
L 2328 2669 
Q 3034 2534 3370 2195 
Q 3706 1856 3706 1288 
Q 3706 609 3251 259 
Q 2797 -91 1919 -91 
Q 1588 -91 1214 -16 
Q 841 59 441 206 
L 441 856 
Q 825 641 1194 531 
Q 1563 422 1919 422 
Q 2459 422 2753 634 
Q 3047 847 3047 1241 
Q 3047 1584 2836 1778 
Q 2625 1972 2144 2069 
L 1759 2144 
Q 1053 2284 737 2584 
Q 422 2884 422 3419 
Q 422 4038 858 4394 
Q 1294 4750 2059 4750 
Q 2388 4750 2728 4690 
Q 3069 4631 3425 4513 
z
" transform="scale(0.015625)"/>
       <path id="DejaVuSans-61" d="M 2194 1759 
Q 1497 1759 1228 1600 
Q 959 1441 959 1056 
Q 959 750 1161 570 
Q 1363 391 1709 391 
Q 2188 391 2477 730 
Q 2766 1069 2766 1631 
L 2766 1759 
L 2194 1759 
z
M 3341 1997 
L 3341 0 
L 2766 0 
L 2766 531 
Q 2569 213 2275 61 
Q 1981 -91 1556 -91 
Q 1019 -91 701 211 
Q 384 513 384 1019 
Q 384 1609 779 1909 
Q 1175 2209 1959 2209 
L 2766 2209 
L 2766 2266 
Q 2766 2663 2505 2880 
Q 2244 3097 1772 3097 
Q 1472 3097 1187 3025 
Q 903 2953 641 2809 
L 641 3341 
Q 956 3463 1253 3523 
Q 1550 3584 1831 3584 
Q 2591 3584 2966 3190 
Q 3341 2797 3341 1997 
z
" transform="scale(0.015625)"/>
       <path id="DejaVuSans-67" d="M 2906 1791 
Q 2906 2416 2648 2759 
Q 2391 3103 1925 3103 
Q 1463 3103 1205 2759 
Q 947 2416 947 1791 
Q 947 1169 1205 825 
Q 1463 481 1925 481 
Q 2391 481 2648 825 
Q 2906 1169 2906 1791 
z
M 3481 434 
Q 3481 -459 3084 -895 
Q 2688 -1331 1869 -1331 
Q 1566 -1331 1297 -1286 
Q 1028 -1241 775 -1147 
L 775 -588 
Q 1028 -725 1275 -790 
Q 1522 -856 1778 -856 
Q 2344 -856 2625 -561 
Q 2906 -266 2906 331 
L 2906 616 
Q 2728 306 2450 153 
Q 2172 0 1784 0 
Q 1141 0 747 490 
Q 353 981 353 1791 
Q 353 2603 747 3093 
Q 1141 3584 1784 3584 
Q 2172 3584 2450 3431 
Q 2728 3278 2906 2969 
L 2906 3500 
L 3481 3500 
L 3481 434 
z
" transform="scale(0.015625)"/>
       <path id="DejaVuSans-73" d="M 2834 3397 
L 2834 2853 
Q 2591 2978 2328 3040 
Q 2066 3103 1784 3103 
Q 1356 3103 1142 2972 
Q 928 2841 928 2578 
Q 928 2378 1081 2264 
Q 1234 2150 1697 2047 
L 1894 2003 
Q 2506 1872 2764 1633 
Q 3022 1394 3022 966 
Q 3022 478 2636 193 
Q 2250 -91 1575 -91 
Q 1294 -91 989 -36 
Q 684 19 347 128 
L 347 722 
Q 666 556 975 473 
Q 1284 391 1588 391 
Q 1994 391 2212 530 
Q 2431 669 2431 922 
Q 2431 1156 2273 1281 
Q 2116 1406 1581 1522 
L 1381 1569 
Q 847 1681 609 1914 
Q 372 2147 372 2553 
Q 372 3047 722 3315 
Q 1072 3584 1716 3584 
Q 2034 3584 2315 3537 
Q 2597 3491 2834 3397 
z
" transform="scale(0.015625)"/>
      </defs>
      <use xlink:href="#DejaVuSans-53"/>
      <use xlink:href="#DejaVuSans-74" x="63.476562"/>
      <use xlink:href="#DejaVuSans-61" x="102.685547"/>
      <use xlink:href="#DejaVuSans-67" x="163.964844"/>
      <use xlink:href="#DejaVuSans-65" x="227.441406"/>
      <use xlink:href="#DejaVuSans-73" x="288.964844"/>
     </g>
    </g>
   </g>
   <g id="matplotlib.axis_2">
    <g id="ytick_1">
     <g id="line2d_6">
      <defs>
       <path id="m6106bde6a4" d="M 0 0 
L -3.5 0 
" style="stroke: #000000; stroke-width: 0.8"/>
      </defs>
      <g>
       <use xlink:href="#m6106bde6a4" x="57.6" y="277.058032" style="stroke: #000000; stroke-width: 0.8"/>
      </g>
     </g>
     <g id="text_7">
      <!-- first -->
      <g transform="translate(36.231065 287.098634) rotate(-30) scale(0.08 -0.08)">
       <use xlink:href="#DejaVuSans-66"/>
       <use xlink:href="#DejaVuSans-69" x="35.205078"/>
       <use xlink:href="#DejaVuSans-72" x="62.988281"/>
       <use xlink:href="#DejaVuSans-73" x="104.101562"/>
       <use xlink:href="#DejaVuSans-74" x="156.201172"/>
      </g>
     </g>
    </g>
    <g id="ytick_2">
     <g id="line2d_7">
      <g>
       <use xlink:href="#m6106bde6a4" x="57.6" y="229.940826" style="stroke: #000000; stroke-width: 0.8"/>
      </g>
     </g>
     <g id="text_8">
      <!-- second -->
      <g transform="translate(25.058255 246.432053) rotate(-30) scale(0.08 -0.08)">
       <defs>
        <path id="DejaVuSans-63" d="M 3122 3366 
L 3122 2828 
Q 2878 2963 2633 3030 
Q 2388 3097 2138 3097 
Q 1578 3097 1268 2742 
Q 959 2388 959 1747 
Q 959 1106 1268 751 
Q 1578 397 2138 397 
Q 2388 397 2633 464 
Q 2878 531 3122 666 
L 3122 134 
Q 2881 22 2623 -34 
Q 2366 -91 2075 -91 
Q 1284 -91 818 406 
Q 353 903 353 1747 
Q 353 2603 823 3093 
Q 1294 3584 2113 3584 
Q 2378 3584 2631 3529 
Q 2884 3475 3122 3366 
z
" transform="scale(0.015625)"/>
        <path id="DejaVuSans-64" d="M 2906 2969 
L 2906 4863 
L 3481 4863 
L 3481 0 
L 2906 0 
L 2906 525 
Q 2725 213 2448 61 
Q 2172 -91 1784 -91 
Q 1150 -91 751 415 
Q 353 922 353 1747 
Q 353 2572 751 3078 
Q 1150 3584 1784 3584 
Q 2172 3584 2448 3432 
Q 2725 3281 2906 2969 
z
M 947 1747 
Q 947 1113 1208 752 
Q 1469 391 1925 391 
Q 2381 391 2643 752 
Q 2906 1113 2906 1747 
Q 2906 2381 2643 2742 
Q 2381 3103 1925 3103 
Q 1469 3103 1208 2742 
Q 947 2381 947 1747 
z
" transform="scale(0.015625)"/>
       </defs>
       <use xlink:href="#DejaVuSans-73"/>
       <use xlink:href="#DejaVuSans-65" x="52.099609"/>
       <use xlink:href="#DejaVuSans-63" x="113.623047"/>
       <use xlink:href="#DejaVuSans-6f" x="168.603516"/>
       <use xlink:href="#DejaVuSans-6e" x="229.785156"/>
       <use xlink:href="#DejaVuSans-64" x="293.164062"/>
      </g>
     </g>
    </g>
    <g id="ytick_3">
     <g id="line2d_8">
      <g>
       <use xlink:href="#m6106bde6a4" x="57.6" y="182.823619" style="stroke: #000000; stroke-width: 0.8"/>
      </g>
     </g>
     <g id="text_9">
      <!-- third -->
      <g transform="translate(33.611339 194.376721) rotate(-30) scale(0.08 -0.08)">
       <use xlink:href="#DejaVuSans-74"/>
       <use xlink:href="#DejaVuSans-68" x="39.208984"/>
       <use xlink:href="#DejaVuSans-69" x="102.587891"/>
       <use xlink:href="#DejaVuSans-72" x="130.371094"/>
       <use xlink:href="#DejaVuSans-64" x="169.734375"/>
      </g>
     </g>
    </g>
    <g id="ytick_4">
     <g id="line2d_9">
      <g>
       <use xlink:href="#m6106bde6a4" x="57.6" y="135.706413" style="stroke: #000000; stroke-width: 0.8"/>
      </g>
     </g>
     <g id="text_10">
      <!-- fourth -->
      <g transform="translate(28.744276 150.069515) rotate(-30) scale(0.08 -0.08)">
       <use xlink:href="#DejaVuSans-66"/>
       <use xlink:href="#DejaVuSans-6f" x="35.205078"/>
       <use xlink:href="#DejaVuSans-75" x="96.386719"/>
       <use xlink:href="#DejaVuSans-72" x="159.765625"/>
       <use xlink:href="#DejaVuSans-74" x="200.878906"/>
       <use xlink:href="#DejaVuSans-68" x="240.087891"/>
      </g>
     </g>
    </g>
    <g id="ytick_5">
     <g id="line2d_10">
      <g>
       <use xlink:href="#m6106bde6a4" x="57.6" y="88.589206" style="stroke: #000000; stroke-width: 0.8"/>
      </g>
     </g>
     <g id="text_11">
      <!-- fifth -->
      <g transform="translate(35.979918 98.774808) rotate(-30) scale(0.08 -0.08)">
       <use xlink:href="#DejaVuSans-66"/>
       <use xlink:href="#DejaVuSans-69" x="35.205078"/>
       <use xlink:href="#DejaVuSans-66" x="62.988281"/>
       <use xlink:href="#DejaVuSans-74" x="96.443359"/>
       <use xlink:href="#DejaVuSans-68" x="135.652344"/>
      </g>
     </g>
    </g>
    <g id="ytick_6">
     <g id="line2d_11">
      <g>
       <use xlink:href="#m6106bde6a4" x="57.6" y="41.472" style="stroke: #000000; stroke-width: 0.8"/>
      </g>
     </g>
     <g id="text_12">
      <!-- sixth -->
      <g transform="translate(33.026771 53.362602) rotate(-30) scale(0.08 -0.08)">
       <defs>
        <path id="DejaVuSans-78" d="M 3513 3500 
L 2247 1797 
L 3578 0 
L 2900 0 
L 1881 1375 
L 863 0 
L 184 0 
L 1544 1831 
L 300 3500 
L 978 3500 
L 1906 2253 
L 2834 3500 
L 3513 3500 
z
" transform="scale(0.015625)"/>
       </defs>
       <use xlink:href="#DejaVuSans-73"/>
       <use xlink:href="#DejaVuSans-69" x="52.099609"/>
       <use xlink:href="#DejaVuSans-78" x="79.882812"/>
       <use xlink:href="#DejaVuSans-74" x="139.0625"/>
       <use xlink:href="#DejaVuSans-68" x="178.271484"/>
      </g>
     </g>
    </g>
    <g id="text_13">
     <!-- Phases -->
     <g transform="translate(15.939193 192.061594) rotate(-90) scale(0.1 -0.1)">
      <defs>
       <path id="DejaVuSans-50" d="M 1259 4147 
L 1259 2394 
L 2053 2394 
Q 2494 2394 2734 2622 
Q 2975 2850 2975 3272 
Q 2975 3691 2734 3919 
Q 2494 4147 2053 4147 
L 1259 4147 
z
M 628 4666 
L 2053 4666 
Q 2838 4666 3239 4311 
Q 3641 3956 3641 3272 
Q 3641 2581 3239 2228 
Q 2838 1875 2053 1875 
L 1259 1875 
L 1259 0 
L 628 0 
L 628 4666 
z
" transform="scale(0.015625)"/>
      </defs>
      <use xlink:href="#DejaVuSans-50"/>
      <use xlink:href="#DejaVuSans-68" x="60.302734"/>
      <use xlink:href="#DejaVuSans-61" x="123.681641"/>
      <use xlink:href="#DejaVuSans-73" x="184.960938"/>
      <use xlink:href="#DejaVuSans-65" x="237.060547"/>
      <use xlink:href="#DejaVuSans-73" x="298.583984"/>
     </g>
    </g>
   </g>
   <g id="line2d_12">
    <path d="M 73.832727 278.02374 
L 74.157707 280.658085 
L 74.482686 280.263437 
L 74.807666 282.338722 
L 75.132645 281.841431 
L 75.457625 274.180921 
L 75.782604 272.799971 
L 76.107584 270.380179 
L 76.757543 275.72292 
L 77.082523 273.24221 
L 77.732482 279.186235 
L 78.057461 277.881185 
L 78.382441 279.338207 
L 78.70742 277.383697 
L 79.0324 280.205044 
L 79.357379 277.414104 
L 79.682359 284.501874 
L 80.007338 287.308301 
L 80.332318 291.540548 
L 80.657297 290.970038 
L 80.982277 295.696369 
L 81.307256 292.546885 
L 81.632236 295.66627 
L 81.957215 292.646965 
L 82.282195 292.778228 
L 82.932154 285.93288 
L 83.257133 287.790156 
L 83.582113 287.343191 
L 83.907093 284.992007 
L 84.232072 284.483358 
L 84.882031 276.305803 
L 85.207011 277.182119 
L 85.53199 282.882181 
L 85.85697 282.993673 
L 86.181949 278.700263 
L 86.506929 279.666945 
L 87.156888 282.204292 
L 87.481867 280.385064 
L 87.806847 275.975296 
L 88.131826 281.9596 
L 88.456806 279.661729 
L 88.781785 281.392724 
L 89.106765 286.046662 
L 89.431744 282.967923 
L 89.756724 283.822347 
L 90.081704 285.643959 
L 90.406683 285.84459 
L 90.731663 288.876498 
L 91.056642 286.892185 
L 91.381622 288.938912 
L 91.706601 282.777257 
L 92.031581 280.938962 
L 92.35656 282.170541 
L 92.68154 282.63796 
L 93.006519 285.87831 
L 93.656478 282.006217 
L 93.981458 287.855627 
L 94.306437 287.368839 
L 94.956396 282.227126 
L 95.281376 283.398573 
L 95.606355 285.264124 
L 95.931335 285.2294 
L 96.256314 282.79759 
L 96.581294 281.274731 
L 96.906274 280.410123 
L 97.231253 281.0883 
L 97.556233 283.603371 
L 97.881212 288.208973 
L 98.206192 286.830697 
L 98.531171 288.204649 
L 98.856151 287.305987 
L 99.18113 279.15929 
L 99.50611 283.474058 
L 99.831089 279.346489 
L 100.156069 282.055112 
L 100.481048 282.895287 
L 100.806028 284.737548 
L 101.131007 284.40262 
L 101.780966 281.229766 
L 102.105946 275.323746 
L 102.430925 276.417504 
L 102.755905 272.847581 
L 103.080885 273.648353 
L 103.405864 275.808556 
L 103.730844 275.331178 
L 104.055823 279.441574 
L 104.705782 270.068454 
L 105.030762 270.682309 
L 105.355741 274.467437 
L 105.680721 272.009651 
L 106.0057 271.057469 
L 106.33068 268.255151 
L 106.655659 270.196596 
L 106.980639 268.665359 
L 107.305618 266.020289 
L 107.630598 258.659363 
L 107.955577 260.479572 
L 108.280557 257.055511 
L 108.605536 257.850843 
L 108.930516 256.617302 
L 109.255495 250.73153 
L 109.905455 258.497141 
L 110.230434 258.302144 
L 110.555414 258.748319 
L 110.880393 251.930555 
L 111.205373 254.291609 
L 111.530352 247.545848 
L 111.855332 247.310851 
L 112.180311 243.958199 
L 112.505291 245.305921 
L 112.83027 249.7555 
L 113.15525 250.144996 
L 113.480229 246.926565 
L 113.805209 248.330866 
L 114.130188 250.995663 
L 114.455168 247.735667 
L 114.780147 256.821568 
L 115.105127 257.262464 
L 115.430106 255.775396 
L 115.755086 258.828721 
L 116.080066 260.184491 
L 116.405045 257.609966 
L 116.730025 257.612584 
L 117.055004 262.130758 
L 117.379984 262.00593 
L 117.704963 266.445085 
L 119.004881 255.436492 
L 119.329861 254.913501 
L 119.65484 259.98295 
L 119.97982 262.16178 
L 120.304799 261.791665 
L 120.629779 258.020208 
L 120.954758 257.739126 
L 121.279738 252.953763 
L 121.604717 255.835196 
L 121.929697 252.55909 
L 122.254676 260.454782 
L 122.579656 258.566072 
L 122.904636 261.365955 
L 123.229615 259.29305 
L 123.554595 259.997814 
L 123.879574 261.882756 
L 124.204554 260.610938 
L 124.529533 257.096214 
L 124.854513 255.288053 
L 125.179492 248.612552 
L 125.504472 249.774787 
L 125.829451 249.303977 
L 126.154431 251.400736 
L 126.47941 250.506078 
L 126.80439 247.372309 
L 127.129369 242.448596 
L 127.454349 242.263974 
L 127.779328 247.032893 
L 128.104308 248.542531 
L 128.429287 247.988284 
L 128.754267 247.096035 
L 129.079247 243.892774 
L 129.404226 239.586796 
L 129.729206 241.187501 
L 130.054185 244.54046 
L 130.379165 249.628009 
L 130.704144 249.277436 
L 131.029124 243.666649 
L 131.354103 243.464561 
L 131.679083 239.117791 
L 132.004062 242.445446 
L 132.329042 243.946358 
L 132.654021 244.588152 
L 132.979001 247.192896 
L 133.30398 248.455347 
L 133.62896 247.31858 
L 133.953939 247.293463 
L 134.278919 244.976272 
L 134.603898 243.895989 
L 134.928878 242.415359 
L 135.253857 245.513069 
L 135.578837 246.767466 
L 135.903817 247.433643 
L 136.228796 243.520932 
L 136.553776 244.144362 
L 136.878755 245.355759 
L 137.203735 247.321262 
L 137.528714 244.227733 
L 137.853694 245.151578 
L 138.503653 251.642177 
L 138.828632 254.980833 
L 139.153612 251.859152 
L 139.478591 255.450442 
L 139.803571 252.457507 
L 140.12855 246.730433 
L 140.45353 247.39152 
L 140.778509 244.462687 
L 141.103489 238.737208 
L 141.428468 242.216411 
L 141.753448 242.376543 
L 142.078428 233.409947 
L 142.403407 232.275771 
L 142.728387 230.250786 
L 143.053366 226.062861 
L 143.378346 227.490976 
L 143.703325 227.378646 
L 144.028305 227.096756 
L 144.353284 218.489601 
L 144.678264 216.16496 
L 145.003243 220.277457 
L 145.328223 216.347022 
L 145.653202 216.422454 
L 145.978182 215.730588 
L 146.303161 215.388452 
L 146.628141 217.132707 
L 146.95312 213.936772 
L 147.2781 218.009723 
L 147.603079 216.539337 
L 148.253038 211.761129 
L 148.578018 211.171814 
L 149.227977 203.956681 
L 149.552957 202.934443 
L 149.877936 199.277551 
L 150.202916 201.482898 
L 150.852875 194.382265 
L 151.177854 197.852831 
L 151.502834 198.072892 
L 151.827813 195.57314 
L 152.152793 200.874056 
L 152.477772 202.610373 
L 152.802752 201.804865 
L 153.127731 199.26688 
L 153.452711 193.624991 
L 153.77769 190.809769 
L 154.752629 204.181499 
L 155.077609 204.839001 
L 155.402588 204.704299 
L 156.052547 209.274499 
L 156.377527 208.086036 
L 156.702506 205.268173 
L 157.027486 201.051757 
L 157.352465 203.167708 
L 157.677445 200.768436 
L 158.002424 206.217316 
L 158.327404 207.976399 
L 158.652383 207.059725 
L 158.977363 207.841905 
L 159.627322 212.005431 
L 159.952301 212.687553 
L 160.277281 211.645697 
L 160.60226 208.801012 
L 161.252219 213.268266 
L 161.577199 211.552996 
L 161.902179 212.229321 
L 162.227158 213.925262 
L 162.552138 214.49346 
L 162.877117 213.698984 
L 163.202097 218.092358 
L 163.527076 216.990092 
L 164.177035 226.312955 
L 164.502015 227.3769 
L 164.826994 226.602834 
L 165.151974 228.216601 
L 165.476953 227.776237 
L 165.801933 226.925859 
L 166.126912 224.13437 
L 166.451892 216.914122 
L 166.776871 217.269508 
L 167.101851 218.11412 
L 167.42683 220.021519 
L 167.75181 216.831893 
L 168.401769 221.59035 
L 168.726749 229.930157 
L 169.051728 229.768589 
L 169.376708 232.193005 
L 169.701687 232.979938 
L 170.026667 228.269697 
L 170.351646 227.290132 
L 170.676626 228.018714 
L 171.001605 232.007085 
L 171.326585 228.923985 
L 171.976544 234.562549 
L 172.301523 236.686811 
L 172.626503 240.400116 
L 172.951482 246.594235 
L 173.276462 247.495643 
L 173.601441 247.994732 
L 173.926421 247.916135 
L 174.2514 246.971671 
L 174.57638 243.856477 
L 174.90136 242.865125 
L 175.226339 243.648684 
L 175.551319 244.087402 
L 175.876298 244.784106 
L 176.851237 238.324991 
L 177.176216 242.019336 
L 177.501196 238.315591 
L 177.826175 238.148254 
L 178.151155 239.570077 
L 179.126093 230.940724 
L 179.451073 231.611709 
L 179.776052 232.600672 
L 180.101032 230.332181 
L 180.426011 230.430377 
L 180.750991 232.074498 
L 181.075971 230.598508 
L 181.72593 226.318049 
L 182.050909 226.780441 
L 182.375889 225.079719 
L 182.700868 224.784269 
L 183.025848 223.357178 
L 183.350827 217.430316 
L 184.000786 216.71662 
L 184.650745 210.663446 
L 185.300704 223.184844 
L 185.625684 223.908006 
L 185.950663 221.540517 
L 186.275643 222.624489 
L 186.600622 219.117719 
L 186.925602 220.356305 
L 187.250581 218.363972 
L 187.575561 218.952005 
L 187.900541 219.899961 
L 188.22552 227.938119 
L 188.5505 228.748321 
L 188.875479 227.464207 
L 189.525438 219.469091 
L 189.850418 219.725301 
L 190.500377 215.624598 
L 190.825356 221.995424 
L 191.150336 221.991751 
L 191.475315 218.407386 
L 191.800295 213.29794 
L 192.450254 217.518814 
L 192.775233 216.204497 
L 193.100213 213.88955 
L 193.425192 212.404022 
L 193.750172 210.387353 
L 194.075152 210.103315 
L 194.400131 212.581664 
L 195.05009 220.90404 
L 195.37507 221.007925 
L 195.700049 224.449061 
L 196.025029 226.450221 
L 196.350008 230.407275 
L 196.674988 230.785624 
L 196.999967 232.89267 
L 197.324947 228.971703 
L 197.649926 232.557911 
L 197.974906 233.554731 
L 198.299885 231.727585 
L 198.624865 223.107265 
L 199.274824 227.348406 
L 199.599803 226.018538 
L 199.924783 225.331717 
L 200.249762 225.360818 
L 200.574742 225.757118 
L 200.899722 223.154872 
L 201.549681 233.015669 
L 201.87466 235.859949 
L 202.19964 235.521608 
L 202.524619 231.146713 
L 202.849599 231.550027 
L 203.174578 233.237168 
L 203.499558 228.328098 
L 203.824537 232.735959 
L 204.149517 234.933253 
L 204.474496 230.705341 
L 204.799476 232.011764 
L 205.124455 237.027837 
L 205.449435 236.691258 
L 205.774414 236.922002 
L 206.099394 232.366138 
L 206.424373 235.117685 
L 206.749353 234.89299 
L 207.074333 232.699526 
L 207.399312 237.495517 
L 207.724292 235.621927 
L 208.049271 236.310751 
L 208.374251 231.231734 
L 208.69923 233.963094 
L 209.02421 232.474209 
L 209.349189 229.992504 
L 209.999148 223.308999 
L 210.324128 226.608725 
L 210.649107 225.475152 
L 210.974087 226.433763 
L 211.299066 227.840539 
L 211.949025 232.114472 
L 212.274005 228.73549 
L 212.598984 228.079749 
L 212.923964 223.434302 
L 213.248943 223.310116 
L 213.573923 219.506702 
L 213.898903 222.169869 
L 214.223882 219.923409 
L 214.548862 220.428636 
L 214.873841 217.875164 
L 215.198821 213.951798 
L 215.5238 214.157436 
L 215.84878 215.022518 
L 216.173759 218.131894 
L 216.498739 215.4686 
L 216.823718 214.836501 
L 217.148698 218.257579 
L 217.473677 214.463917 
L 217.798657 214.06119 
L 218.123636 217.723099 
L 218.448616 216.425303 
L 219.098575 211.285211 
L 219.423554 211.549444 
L 220.073514 208.075874 
L 220.723473 199.854013 
L 221.048452 201.690796 
L 221.373432 199.266129 
L 221.698411 191.791081 
L 222.023391 179.805583 
L 222.34837 176.785887 
L 222.67335 180.70489 
L 222.998329 181.165179 
L 223.648288 184.775124 
L 223.973268 185.182929 
L 224.298247 183.164542 
L 224.623227 183.504288 
L 224.948206 182.721416 
L 225.598165 189.52698 
L 225.923145 185.513671 
L 226.248124 190.877855 
L 226.573104 191.917013 
L 226.898084 189.198881 
L 227.223063 190.810977 
L 227.548043 194.841946 
L 228.198002 192.152781 
L 228.522981 187.557219 
L 228.847961 190.86965 
L 229.17294 189.71775 
L 229.49792 187.915162 
L 229.822899 193.896401 
L 230.472858 188.277462 
L 230.797838 188.610255 
L 231.122817 190.136399 
L 231.447797 198.002462 
L 232.097756 201.703398 
L 232.422735 202.365374 
L 232.747715 203.64602 
L 233.072695 206.537116 
L 233.397674 204.264332 
L 233.722654 198.467665 
L 234.047633 199.009168 
L 234.697592 205.746078 
L 235.022572 201.44485 
L 235.347551 202.802507 
L 235.672531 203.609739 
L 235.99751 202.139198 
L 236.32249 209.481277 
L 236.647469 205.196114 
L 236.972449 202.741192 
L 237.297428 203.122924 
L 237.622408 207.647439 
L 238.272367 201.544194 
L 238.597346 199.192433 
L 238.922326 200.894044 
L 239.247305 199.060312 
L 239.572285 193.605292 
L 239.897265 195.790297 
L 240.222244 192.261765 
L 240.547224 197.677355 
L 240.872203 198.451874 
L 241.522162 187.90757 
L 241.847142 190.83179 
L 242.172121 188.547732 
L 242.497101 182.302856 
L 242.82208 181.682402 
L 243.797019 166.94699 
L 244.121998 170.531915 
L 244.446978 165.746133 
L 244.771957 163.881365 
L 245.421916 170.39809 
L 245.746896 171.120783 
L 246.071876 174.124821 
L 246.396855 174.478572 
L 246.721835 177.874203 
L 247.046814 186.849841 
L 247.371794 184.938645 
L 247.696773 187.557809 
L 248.021753 184.634162 
L 248.346732 184.836389 
L 248.671712 182.622714 
L 249.321671 182.766633 
L 249.64665 184.264864 
L 249.97163 185.161352 
L 250.621589 180.79234 
L 250.946568 183.485931 
L 251.271548 182.488833 
L 251.596527 180.127191 
L 252.246486 183.204282 
L 252.571466 179.222168 
L 252.896446 183.008522 
L 253.221425 181.048899 
L 253.546405 181.180058 
L 253.871384 184.941444 
L 254.196364 186.207084 
L 254.521343 186.660164 
L 254.846323 186.334418 
L 255.171302 185.666487 
L 255.496282 187.539916 
L 255.821261 183.424446 
L 256.146241 181.808329 
L 256.47122 184.5931 
L 256.7962 183.161814 
L 257.446159 193.028259 
L 258.096118 184.279973 
L 258.421097 186.033928 
L 258.746077 184.985881 
L 259.396036 181.682606 
L 259.721016 180.354258 
L 260.045995 182.250777 
L 260.370975 179.365219 
L 260.695954 181.451565 
L 261.020934 177.154302 
L 261.345913 179.275717 
L 261.670893 183.16899 
L 261.995872 182.081879 
L 262.320852 180.317748 
L 262.645831 176.582369 
L 262.970811 175.280278 
L 263.29579 168.889406 
L 263.62077 168.176989 
L 263.945749 170.102554 
L 264.270729 173.655309 
L 264.595708 175.428692 
L 264.920688 171.689329 
L 265.245667 171.672572 
L 265.570647 175.024621 
L 265.895627 176.063608 
L 266.220606 174.830448 
L 266.545586 177.465382 
L 266.870565 181.091248 
L 267.520524 171.309536 
L 267.845504 171.717449 
L 268.170483 174.938943 
L 268.495463 176.172215 
L 268.820442 173.102186 
L 269.145422 177.660629 
L 269.470401 178.915983 
L 269.795381 179.366094 
L 270.12036 184.103946 
L 270.44534 185.815859 
L 270.770319 183.515277 
L 271.095299 182.607389 
L 271.420278 179.094688 
L 271.745258 185.36216 
L 272.070238 181.756957 
L 272.395217 180.044656 
L 273.045176 168.17551 
L 273.370156 168.898897 
L 273.695135 167.278245 
L 274.020115 164.827936 
L 274.345094 164.860078 
L 274.670074 162.866509 
L 275.645012 155.236174 
L 275.969992 156.219244 
L 276.619951 148.758748 
L 276.94493 150.716622 
L 277.26991 146.703306 
L 277.919869 152.075584 
L 278.244848 149.621547 
L 278.569828 145.596866 
L 278.894808 144.43007 
L 279.219787 145.956051 
L 279.869746 143.283067 
L 280.194726 142.181372 
L 280.519705 144.002953 
L 281.494644 130.481299 
L 281.819623 124.65717 
L 282.469582 129.683701 
L 282.794562 122.633596 
L 283.119541 118.645194 
L 283.444521 112.832751 
L 283.7695 116.373211 
L 284.09448 113.558911 
L 284.419459 120.457357 
L 284.744439 122.184895 
L 285.069419 124.985626 
L 285.394398 123.229761 
L 285.719378 126.186817 
L 286.044357 126.820262 
L 286.369337 124.054487 
L 286.694316 125.144945 
L 287.019296 125.652587 
L 287.344275 123.851545 
L 287.669255 127.448331 
L 287.994234 124.365767 
L 288.319214 125.144822 
L 288.644193 127.250604 
L 288.969173 125.849101 
L 289.294152 121.462269 
L 289.619132 118.829216 
L 289.944111 117.825017 
L 290.269091 118.077527 
L 290.59407 116.490943 
L 290.91905 111.988408 
L 291.244029 111.666349 
L 291.893989 107.421094 
L 292.218968 104.349137 
L 292.543948 104.829918 
L 292.868927 103.791385 
L 293.518886 94.560191 
L 293.843866 96.755144 
L 294.168845 92.505775 
L 294.493825 93.998431 
L 294.818804 92.569967 
L 295.143784 89.276919 
L 295.468763 90.192208 
L 295.793743 83.421357 
L 296.118722 87.843573 
L 296.443702 88.824178 
L 296.768681 84.651237 
L 297.093661 76.871427 
L 297.41864 76.237253 
L 297.74362 74.447555 
L 298.0686 77.653025 
L 298.393579 71.369056 
L 298.718559 70.337127 
L 299.368518 75.515081 
L 299.693497 73.418371 
L 300.018477 73.540084 
L 300.343456 71.784992 
L 300.668436 73.726744 
L 300.993415 76.565762 
L 301.318395 75.401563 
L 301.643374 70.792556 
L 301.968354 69.616919 
L 302.293333 67.835234 
L 302.618313 69.016554 
L 302.943292 70.872373 
L 303.268272 70.543776 
L 303.593251 68.164934 
L 304.24321 73.196103 
L 304.56819 72.11103 
L 304.89317 73.346287 
L 305.218149 74.083486 
L 305.543129 67.880071 
L 305.868108 65.213047 
L 306.193088 64.464229 
L 306.843047 73.144077 
L 307.168026 74.092039 
L 307.493006 77.049776 
L 307.817985 75.25677 
L 308.142965 82.577413 
L 308.467944 80.516008 
L 308.792924 73.768762 
L 309.117903 72.213928 
L 309.442883 76.783997 
L 309.767862 85.853763 
L 310.092842 90.358405 
L 310.742801 88.648351 
L 311.067781 89.894144 
L 311.39276 88.14603 
L 311.71774 90.182596 
L 312.367699 89.356896 
L 313.017658 81.688592 
L 313.342637 82.075798 
L 313.667617 78.319162 
L 314.317576 74.545033 
L 314.642555 71.984924 
L 314.967535 72.263251 
L 315.292514 74.954089 
L 315.617494 76.144894 
L 315.942473 79.635193 
L 316.267453 77.105505 
L 316.592432 76.66053 
L 316.917412 79.075334 
L 317.242391 77.112426 
L 317.567371 83.251021 
L 317.892351 81.003197 
L 318.21733 81.913063 
L 318.54231 81.76672 
L 318.867289 81.32843 
L 319.517248 77.645246 
L 319.842228 76.309618 
L 320.167207 77.501267 
L 320.492187 72.419571 
L 321.142146 69.164056 
L 321.467125 68.339722 
L 321.792105 64.125735 
L 322.117084 69.590832 
L 322.442064 69.637125 
L 322.767043 75.208834 
L 323.092023 75.349848 
L 323.417002 80.332262 
L 323.741982 78.837705 
L 324.066962 79.928747 
L 324.391941 83.759562 
L 324.716921 81.079518 
L 325.0419 81.560981 
L 325.36688 91.999388 
L 325.691859 95.250216 
L 326.016839 92.56274 
L 326.341818 95.408738 
L 326.666798 104.151169 
L 326.991777 100.721033 
L 327.316757 93.764995 
L 327.966716 86.475394 
L 328.291695 85.455428 
L 328.616675 85.677435 
L 328.941654 90.987955 
L 329.266634 87.282085 
L 329.591613 85.288018 
L 329.916593 86.902006 
L 330.241572 90.942 
L 330.566552 90.205238 
L 331.216511 92.951617 
L 331.86647 89.423205 
L 332.19145 91.925319 
L 332.516429 89.063739 
L 332.841409 92.161536 
L 333.166388 90.965328 
L 333.491368 88.014664 
L 333.816347 88.497804 
L 334.141327 89.442755 
L 334.466306 88.019002 
L 334.791286 87.790125 
L 335.441245 85.055018 
L 335.766224 85.253613 
L 336.091204 82.559021 
L 336.416183 84.772336 
L 336.741163 80.90885 
L 337.391122 79.239732 
L 337.716102 78.943202 
L 338.041081 84.214031 
L 339.01602 92.818889 
L 339.340999 90.91362 
L 339.665979 90.324785 
L 339.990958 90.51774 
L 340.315938 89.101565 
L 340.965897 93.81358 
L 341.290876 92.47304 
L 341.615856 92.874175 
L 341.940835 95.529128 
L 342.265815 88.132719 
L 342.590794 83.761546 
L 342.915774 88.402962 
L 343.565733 79.628386 
L 343.890713 80.936959 
L 344.215692 80.946645 
L 344.540672 74.797042 
L 344.865651 73.476435 
L 345.51561 77.201978 
L 345.84059 78.036577 
L 346.165569 83.748858 
L 346.490549 85.784931 
L 347.140508 87.617421 
L 347.465487 91.032705 
L 347.790467 91.091724 
L 348.115446 95.04474 
L 348.765405 94.433534 
L 349.090385 92.39873 
L 349.740344 86.504991 
L 350.065324 88.164875 
L 350.390303 84.972484 
L 350.715283 80.423934 
L 351.365242 86.020341 
L 351.690221 87.048666 
L 352.015201 77.854032 
L 352.34018 84.437821 
L 352.66516 84.538064 
L 352.990139 88.761985 
L 353.315119 88.664067 
L 353.640098 93.308407 
L 353.965078 92.497523 
L 354.290057 88.447282 
L 354.615037 89.819177 
L 354.940016 88.11377 
L 355.264996 88.265379 
L 355.589975 90.025695 
L 355.914955 88.577107 
L 356.239934 87.907692 
L 356.564914 88.818646 
L 356.889894 85.583615 
L 357.214873 80.702364 
L 357.539853 81.996041 
L 357.864832 76.188961 
L 358.189812 81.789073 
L 358.514791 82.037234 
L 358.839771 78.992833 
L 359.16475 78.990584 
L 359.48973 77.607615 
L 359.814709 71.251008 
L 360.464668 66.304676 
L 360.789648 63.594772 
L 361.114627 67.098953 
L 361.764586 69.253675 
L 362.089566 69.038543 
L 362.414545 70.791846 
L 363.064505 75.38271 
L 363.389484 73.919884 
L 363.714464 66.949823 
L 364.039443 68.187725 
L 364.364423 69.930505 
L 365.014382 62.431219 
L 365.339361 57.943754 
L 365.664341 57.981777 
L 365.98932 58.819216 
L 366.3143 61.275865 
L 366.639279 67.232546 
L 366.964259 70.667509 
L 367.289238 70.041943 
L 367.614218 72.052485 
L 367.939197 72.336423 
L 368.264177 78.737165 
L 368.589156 80.504711 
L 369.239115 91.209828 
L 369.889075 95.554458 
L 370.214054 95.821853 
L 370.864013 102.057459 
L 371.188993 104.160107 
L 371.513972 109.567023 
L 371.838952 105.443862 
L 372.163931 98.399519 
L 372.488911 97.167257 
L 372.81389 97.405047 
L 373.13887 99.466681 
L 373.463849 100.516317 
L 374.113808 97.202674 
L 374.438788 94.067767 
L 374.763767 102.47791 
L 375.088747 101.783891 
L 375.413726 106.545226 
L 375.738706 113.90934 
L 376.063686 114.427726 
L 376.388665 115.573727 
L 376.713645 118.297114 
L 377.038624 118.229406 
L 377.363604 120.585207 
L 377.688583 124.394744 
L 378.013563 125.042291 
L 378.338542 118.764481 
L 378.663522 118.802456 
L 378.988501 121.663819 
L 379.313481 122.427518 
L 379.63846 118.639088 
L 379.96344 124.950859 
L 380.288419 123.117343 
L 380.613399 122.964321 
L 380.938378 125.52192 
L 381.263358 124.93536 
L 381.588337 122.62281 
L 381.913317 123.086543 
L 382.238296 124.685662 
L 382.563276 128.191404 
L 382.888256 129.057079 
L 383.538215 121.913987 
L 383.863194 123.390423 
L 384.188174 118.658716 
L 384.513153 121.890828 
L 385.163112 120.65401 
L 385.488092 117.083745 
L 385.813071 119.010002 
L 386.138051 123.551122 
L 386.46303 125.048515 
L 386.78801 123.780153 
L 387.112989 126.992818 
L 387.437969 123.267268 
L 387.762948 125.58612 
L 388.087928 126.219326 
L 388.412907 131.274627 
L 388.737887 127.459615 
L 389.062867 127.688342 
L 389.712826 140.561511 
L 390.037805 136.91469 
L 390.362785 139.362303 
L 391.012744 141.466848 
L 391.337723 140.716605 
L 391.987682 148.155682 
L 392.312662 142.949222 
L 392.637641 146.319151 
L 392.962621 147.882591 
L 393.2876 147.7285 
L 393.61258 143.802048 
L 393.937559 141.97053 
L 394.262539 145.629871 
L 394.587518 145.883516 
L 394.912498 142.62677 
L 395.562457 157.432356 
L 395.887437 158.428582 
L 396.212416 161.280802 
L 396.537396 162.840013 
L 396.862375 158.194198 
L 397.187355 163.552507 
L 397.512334 159.510188 
L 397.837314 163.020062 
L 398.162293 162.748915 
L 398.487273 156.511738 
L 398.487273 156.511738 
" clip-path="url(#pfae2d207fd)" style="fill: none; stroke: #1f77b4; stroke-width: 1.5; stroke-linecap: square"/>
   </g>
   <g id="patch_3">
    <path d="M 57.6 307.584 
L 57.6 41.472 
" style="fill: none; stroke: #000000; stroke-width: 0.8; stroke-linejoin: miter; stroke-linecap: square"/>
   </g>
   <g id="patch_4">
    <path d="M 414.72 307.584 
L 414.72 41.472 
" style="fill: none; stroke: #000000; stroke-width: 0.8; stroke-linejoin: miter; stroke-linecap: square"/>
   </g>
   <g id="patch_5">
    <path d="M 57.6 307.584 
L 414.72 307.584 
" style="fill: none; stroke: #000000; stroke-width: 0.8; stroke-linejoin: miter; stroke-linecap: square"/>
   </g>
   <g id="patch_6">
    <path d="M 57.6 41.472 
L 414.72 41.472 
" style="fill: none; stroke: #000000; stroke-width: 0.8; stroke-linejoin: miter; stroke-linecap: square"/>
   </g>
   <g id="text_14">
    <!-- My first matplotlib plot -->
    <g transform="translate(167.972813 35.472) scale(0.12 -0.12)">
     <defs>
      <path id="DejaVuSans-4d" d="M 628 4666 
L 1569 4666 
L 2759 1491 
L 3956 4666 
L 4897 4666 
L 4897 0 
L 4281 0 
L 4281 4097 
L 3078 897 
L 2444 897 
L 1241 4097 
L 1241 0 
L 628 0 
L 628 4666 
z
" transform="scale(0.015625)"/>
      <path id="DejaVuSans-79" d="M 2059 -325 
Q 1816 -950 1584 -1140 
Q 1353 -1331 966 -1331 
L 506 -1331 
L 506 -850 
L 844 -850 
Q 1081 -850 1212 -737 
Q 1344 -625 1503 -206 
L 1606 56 
L 191 3500 
L 800 3500 
L 1894 763 
L 2988 3500 
L 3597 3500 
L 2059 -325 
z
" transform="scale(0.015625)"/>
      <path id="DejaVuSans-20" transform="scale(0.015625)"/>
      <path id="DejaVuSans-6d" d="M 3328 2828 
Q 3544 3216 3844 3400 
Q 4144 3584 4550 3584 
Q 5097 3584 5394 3201 
Q 5691 2819 5691 2113 
L 5691 0 
L 5113 0 
L 5113 2094 
Q 5113 2597 4934 2840 
Q 4756 3084 4391 3084 
Q 3944 3084 3684 2787 
Q 3425 2491 3425 1978 
L 3425 0 
L 2847 0 
L 2847 2094 
Q 2847 2600 2669 2842 
Q 2491 3084 2119 3084 
Q 1678 3084 1418 2786 
Q 1159 2488 1159 1978 
L 1159 0 
L 581 0 
L 581 3500 
L 1159 3500 
L 1159 2956 
Q 1356 3278 1631 3431 
Q 1906 3584 2284 3584 
Q 2666 3584 2933 3390 
Q 3200 3197 3328 2828 
z
" transform="scale(0.015625)"/>
      <path id="DejaVuSans-70" d="M 1159 525 
L 1159 -1331 
L 581 -1331 
L 581 3500 
L 1159 3500 
L 1159 2969 
Q 1341 3281 1617 3432 
Q 1894 3584 2278 3584 
Q 2916 3584 3314 3078 
Q 3713 2572 3713 1747 
Q 3713 922 3314 415 
Q 2916 -91 2278 -91 
Q 1894 -91 1617 61 
Q 1341 213 1159 525 
z
M 3116 1747 
Q 3116 2381 2855 2742 
Q 2594 3103 2138 3103 
Q 1681 3103 1420 2742 
Q 1159 2381 1159 1747 
Q 1159 1113 1420 752 
Q 1681 391 2138 391 
Q 2594 391 2855 752 
Q 3116 1113 3116 1747 
z
" transform="scale(0.015625)"/>
      <path id="DejaVuSans-6c" d="M 603 4863 
L 1178 4863 
L 1178 0 
L 603 0 
L 603 4863 
z
" transform="scale(0.015625)"/>
      <path id="DejaVuSans-62" d="M 3116 1747 
Q 3116 2381 2855 2742 
Q 2594 3103 2138 3103 
Q 1681 3103 1420 2742 
Q 1159 2381 1159 1747 
Q 1159 1113 1420 752 
Q 1681 391 2138 391 
Q 2594 391 2855 752 
Q 3116 1113 3116 1747 
z
M 1159 2969 
Q 1341 3281 1617 3432 
Q 1894 3584 2278 3584 
Q 2916 3584 3314 3078 
Q 3713 2572 3713 1747 
Q 3713 922 3314 415 
Q 2916 -91 2278 -91 
Q 1894 -91 1617 61 
Q 1341 213 1159 525 
L 1159 0 
L 581 0 
L 581 4863 
L 1159 4863 
L 1159 2969 
z
" transform="scale(0.015625)"/>
     </defs>
     <use xlink:href="#DejaVuSans-4d"/>
     <use xlink:href="#DejaVuSans-79" x="86.279297"/>
     <use xlink:href="#DejaVuSans-20" x="145.458984"/>
     <use xlink:href="#DejaVuSans-66" x="177.246094"/>
     <use xlink:href="#DejaVuSans-69" x="212.451172"/>
     <use xlink:href="#DejaVuSans-72" x="240.234375"/>
     <use xlink:href="#DejaVuSans-73" x="281.347656"/>
     <use xlink:href="#DejaVuSans-74" x="333.447266"/>
     <use xlink:href="#DejaVuSans-20" x="372.65625"/>
     <use xlink:href="#DejaVuSans-6d" x="404.443359"/>
     <use xlink:href="#DejaVuSans-61" x="501.855469"/>
     <use xlink:href="#DejaVuSans-74" x="563.134766"/>
     <use xlink:href="#DejaVuSans-70" x="602.34375"/>
     <use xlink:href="#DejaVuSans-6c" x="665.820312"/>
     <use xlink:href="#DejaVuSans-6f" x="693.603516"/>
     <use xlink:href="#DejaVuSans-74" x="754.785156"/>
     <use xlink:href="#DejaVuSans-6c" x="793.994141"/>
     <use xlink:href="#DejaVuSans-69" x="821.777344"/>
     <use xlink:href="#DejaVuSans-62" x="849.560547"/>
     <use xlink:href="#DejaVuSans-20" x="913.037109"/>
     <use xlink:href="#DejaVuSans-70" x="944.824219"/>
     <use xlink:href="#DejaVuSans-6c" x="1008.300781"/>
     <use xlink:href="#DejaVuSans-6f" x="1036.083984"/>
     <use xlink:href="#DejaVuSans-74" x="1097.265625"/>
    </g>
   </g>
  </g>
 </g>
 <defs>
  <clipPath id="pfae2d207fd">
   <rect x="57.6" y="41.472" width="357.12" height="266.112"/>
  </clipPath>
 </defs>
</svg>
